<svg width="24" height="24" viewBox="0 0 24 24" fill="none" xmlns="http://www.w3.org/2000/svg">
<path d="M3.33332 3.59997C3.15651 3.59997 2.98694 3.67021 2.86192 3.79523C2.73689 3.92025 2.66666 4.08982 2.66666 4.26663V18.9333C2.66666 19.1101 2.73689 19.2797 2.86192 19.4047C2.98694 19.5297 3.15651 19.6 3.33332 19.6C3.51013 19.6 3.6797 19.5297 3.80473 19.4047C3.92975 19.2797 3.99999 19.1101 3.99999 18.9333V4.26663C3.99999 4.08982 3.92975 3.92025 3.80473 3.79523C3.6797 3.67021 3.51013 3.59997 3.33332 3.59997Z" fill="#1F6591"/>
<path d="M6.00001 4.79997C5.8232 4.79997 5.65363 4.87021 5.52861 4.99523C5.40358 5.12026 5.33334 5.28982 5.33334 5.46664V17.4666C5.33334 17.6434 5.40358 17.813 5.52861 17.938C5.65363 18.0631 5.8232 18.1333 6.00001 18.1333C6.17682 18.1333 6.34639 18.0631 6.47141 17.938C6.59644 17.813 6.66668 17.6434 6.66668 17.4666V5.46664C6.66668 5.28982 6.59644 5.12026 6.47141 4.99523C6.34639 4.87021 6.17682 4.79997 6.00001 4.79997Z" fill="#1F6591"/>
<path d="M8.66667 4.79997C8.48986 4.79997 8.32029 4.87021 8.19526 4.99523C8.07024 5.12026 8 5.28982 8 5.46664V17.4666C8 17.6434 8.07024 17.813 8.19526 17.938C8.32029 18.0631 8.48986 18.1333 8.66667 18.1333C8.84348 18.1333 9.01305 18.0631 9.13807 17.938C9.2631 17.813 9.33333 17.6434 9.33333 17.4666V5.46664C9.33333 5.28982 9.2631 5.12026 9.13807 4.99523C9.01305 4.87021 8.84348 4.79997 8.66667 4.79997Z" fill="#1F6591"/>
<path d="M11.3333 4.79997C11.1565 4.79997 10.9869 4.87021 10.8619 4.99523C10.7369 5.12026 10.6667 5.28982 10.6667 5.46664V17.4666C10.6667 17.6434 10.7369 17.813 10.8619 17.938C10.9869 18.0631 11.1565 18.1333 11.3333 18.1333C11.5101 18.1333 11.6797 18.0631 11.8047 17.938C11.9298 17.813 12 17.6434 12 17.4666V5.46664C12 5.28982 11.9298 5.12026 11.8047 4.99523C11.6797 4.87021 11.5101 4.79997 11.3333 4.79997Z" fill="#1F6591"/>
<path d="M14 4.79997C13.8232 4.79997 13.6536 4.87021 13.5286 4.99523C13.4036 5.12026 13.3333 5.28982 13.3333 5.46664V17.4666C13.3333 17.6434 13.4036 17.813 13.5286 17.938C13.6536 18.0631 13.8232 18.1333 14 18.1333C14.1768 18.1333 14.3464 18.0631 14.4714 17.938C14.5964 17.813 14.6667 17.6434 14.6667 17.4666V5.46664C14.6667 5.28982 14.5964 5.12026 14.4714 4.99523C14.3464 4.87021 14.1768 4.79997 14 4.79997Z" fill="#1F6591"/>
<path d="M16.6667 4.79997C16.4899 4.79997 16.3203 4.87021 16.1953 4.99523C16.0702 5.12026 16 5.28982 16 5.46664V17.4666C16 17.6434 16.0702 17.813 16.1953 17.938C16.3203 18.0631 16.4899 18.1333 16.6667 18.1333C16.8435 18.1333 17.013 18.0631 17.1381 17.938C17.2631 17.813 17.3333 17.6434 17.3333 17.4666V5.46664C17.3333 5.28982 17.2631 5.12026 17.1381 4.99523C17.013 4.87021 16.8435 4.79997 16.6667 4.79997Z" fill="#1F6591"/>
<path d="M19.3333 4.79997C19.1565 4.79997 18.9869 4.87021 18.8619 4.99523C18.7369 5.12026 18.6667 5.28982 18.6667 5.46664V17.4666C18.6667 17.6434 18.7369 17.813 18.8619 17.938C18.9869 18.0631 19.1565 18.1333 19.3333 18.1333C19.5101 18.1333 19.6797 18.0631 19.8047 17.938C19.9298 17.813 20 17.6434 20 17.4666V5.46664C20 5.28982 19.9298 5.12026 19.8047 4.99523C19.6797 4.87021 19.5101 4.79997 19.3333 4.79997Z" fill="#1F6591"/>
<path d="M22 3.59997C21.8232 3.59997 21.6536 3.67021 21.5286 3.79523C21.4036 3.92025 21.3333 4.08982 21.3333 4.26663V18.9333C21.3333 19.1101 21.4036 19.2797 21.5286 19.4047C21.6536 19.5297 21.8232 19.6 22 19.6C22.1768 19.6 22.3464 19.5297 22.4714 19.4047C22.5964 19.2797 22.6667 19.1101 22.6667 18.9333V4.26663C22.6667 4.08982 22.5964 3.92025 22.4714 3.79523C22.3464 3.67021 22.1768 3.59997 22 3.59997Z" fill="#1F6591"/>
</svg>
