<svg width="24" height="24" viewBox="0 0 24 24" fill="none" xmlns="http://www.w3.org/2000/svg">
<path d="M15.1407 3.81807V4.44563L15.7584 4.55631L23.25 5.89872L23.25 10.3854L20.3836 12.9478L20.1577 13.1497L20.1355 13.4518L19.8314 17.5782L17.3438 17.5783L16.5938 17.5783V18.3283V19.5526L13.3466 23.2403L9.20832 21.4933L10.8508 18.7138L11.0197 18.4279L10.9216 18.1107L9.66557 14.0494L9.60348 13.8487L9.44612 13.7094L5.7151 10.4073L5.50226 10.2189H5.21803H0.750002L0.75014 6.72409L2.4721 5.16612L2.71892 4.94281V4.60997V2.43767H5.05983H5.71286L5.8027 1.79084L5.94722 0.750185L9.07931 0.750001L10.5282 1.74369L10.7199 1.87518H10.9524H15.1407V3.81807ZM19.8282 17.6217C19.8282 17.6217 19.8282 17.6216 19.8282 17.6215L19.8282 17.6217L19.8282 17.6217ZM9.15891 21.4725C9.15894 21.4725 9.15897 21.4725 9.159 21.4725L9.15891 21.4725ZM5.95284 0.709773C5.95283 0.709782 5.95283 0.709791 5.95283 0.7098L5.95284 0.709773ZM5.90633 0.750188H5.90638H5.90633Z" stroke="#1F6591" stroke-width="1.5"/>
</svg>
