<svg width="48" height="48" viewBox="0 0 48 48" fill="none" xmlns="http://www.w3.org/2000/svg">
<circle cx="24" cy="24" r="24" fill="#F2F2F2"/>
<path opacity="0.2" d="M23.9996 12C21.5715 11.9993 19.2002 12.7352 17.1992 14.1105C15.1981 15.4859 13.6613 17.4359 12.7918 19.703C11.9223 21.9701 11.7611 24.4477 12.3294 26.8084C12.8976 29.1691 14.1687 31.3019 15.9746 32.925V32.925C16.7271 31.4432 17.8752 30.1986 19.2917 29.3293C20.7081 28.46 22.3377 27.9999 23.9996 28C23.0107 28 22.044 27.7068 21.2218 27.1573C20.3995 26.6079 19.7586 25.827 19.3802 24.9134C19.0018 23.9998 18.9027 22.9945 19.0957 22.0245C19.2886 21.0546 19.7648 20.1637 20.4641 19.4645C21.1633 18.7652 22.0542 18.289 23.0242 18.0961C23.9941 17.9031 24.9994 18.0022 25.913 18.3806C26.8267 18.759 27.6075 19.3999 28.157 20.2221C28.7064 21.0444 28.9996 22.0111 28.9996 23C28.9996 24.3261 28.4728 25.5979 27.5351 26.5355C26.5975 27.4732 25.3257 28 23.9996 28C25.6615 27.9999 27.2911 28.46 28.7075 29.3293C30.124 30.1986 31.2721 31.4432 32.0246 32.925C33.8305 31.3019 35.1016 29.1691 35.6698 26.8084C36.2381 24.4477 36.0769 21.9701 35.2074 19.703C34.3379 17.4359 32.8011 15.4859 30.8001 14.1105C28.799 12.7352 26.4277 11.9993 23.9996 12Z" fill="#919191"/>
<path d="M24 36C30.6274 36 36 30.6274 36 24C36 17.3726 30.6274 12 24 12C17.3726 12 12 17.3726 12 24C12 30.6274 17.3726 36 24 36Z" stroke="#919191" stroke-width="2" stroke-linecap="round" stroke-linejoin="round"/>
<path d="M24 28C26.7614 28 29 25.7614 29 23C29 20.2386 26.7614 18 24 18C21.2386 18 19 20.2386 19 23C19 25.7614 21.2386 28 24 28Z" stroke="#919191" stroke-width="2" stroke-linecap="round" stroke-linejoin="round"/>
<path d="M15.9766 32.9248C16.7289 31.4428 17.877 30.1981 19.2935 29.3287C20.71 28.4592 22.3395 27.999 24.0016 27.999C25.6636 27.999 27.2932 28.4592 28.7096 29.3287C30.1261 30.1981 31.2742 31.4428 32.0266 32.9248" stroke="#919191" stroke-width="2" stroke-linecap="round" stroke-linejoin="round"/>
</svg>
