<svg width="48" height="48" viewBox="0 0 48 48" fill="none" xmlns="http://www.w3.org/2000/svg">
<circle cx="24" cy="24" r="24" fill="#F2F2F2"/>
<path opacity="0.2" d="M15.0254 22.0004C15.0254 20.8218 15.2575 19.6547 15.7086 18.5658C16.1596 17.4769 16.8207 16.4875 17.6541 15.6541C18.4875 14.8207 19.4769 14.1596 20.5658 13.7086C21.6547 13.2575 22.8218 13.0254 24.0004 13.0254C25.179 13.0254 26.3461 13.2575 27.435 13.7086C28.5239 14.1596 29.5133 14.8207 30.3467 15.6541C31.1801 16.4875 31.8412 17.4769 32.2922 18.5658C32.7432 19.6547 32.9754 20.8218 32.9754 22.0004C32.9754 26.4754 33.9129 29.0754 34.7379 30.5004C34.8255 30.6522 34.8717 30.8243 34.8719 30.9995C34.872 31.1748 34.8261 31.347 34.7388 31.4989C34.6514 31.6508 34.5257 31.7771 34.3741 31.8651C34.2226 31.9531 34.0506 31.9998 33.8754 32.0004H14.1254C13.9501 31.9998 13.7781 31.9531 13.6266 31.8651C13.4751 31.7771 13.3494 31.6508 13.262 31.4989C13.1746 31.347 13.1288 31.1748 13.1289 30.9995C13.1291 30.8243 13.1753 30.6522 13.2629 30.5004C14.0879 29.0754 15.0254 26.4754 15.0254 22.0004Z" fill="#919191"/>
<path d="M15.0254 22.0004C15.0254 20.8218 15.2575 19.6547 15.7086 18.5658C16.1596 17.4769 16.8207 16.4875 17.6541 15.6541C18.4875 14.8207 19.4769 14.1596 20.5658 13.7086C21.6547 13.2575 22.8218 13.0254 24.0004 13.0254C25.179 13.0254 26.3461 13.2575 27.435 13.7086C28.5239 14.1596 29.5133 14.8207 30.3467 15.6541C31.1801 16.4875 31.8412 17.4769 32.2922 18.5658C32.7432 19.6547 32.9754 20.8218 32.9754 22.0004V22.0004C32.9754 26.4754 33.9129 29.0754 34.7379 30.5004C34.8255 30.6522 34.8717 30.8243 34.8719 30.9995C34.872 31.1748 34.8261 31.347 34.7388 31.4989C34.6514 31.6508 34.5257 31.7771 34.3741 31.8651C34.2226 31.9531 34.0506 31.9998 33.8754 32.0004H14.1254C13.9501 31.9998 13.7781 31.9531 13.6266 31.8651C13.4751 31.7771 13.3494 31.6508 13.262 31.4989C13.1746 31.347 13.1288 31.1748 13.1289 30.9995C13.1291 30.8243 13.1753 30.6522 13.2629 30.5004C14.0879 29.0754 15.0254 26.4754 15.0254 22.0004Z" stroke="#919191" stroke-width="2" stroke-linecap="round" stroke-linejoin="round"/>
<path d="M20 32V33C20 34.0609 20.4214 35.0783 21.1716 35.8284C21.9217 36.5786 22.9391 37 24 37C25.0609 37 26.0783 36.5786 26.8284 35.8284C27.5786 35.0783 28 34.0609 28 33V32" stroke="#919191" stroke-width="2" stroke-linecap="round" stroke-linejoin="round"/>
<path d="M30.9258 11C32.9618 12.2853 34.6051 14.1058 35.6758 16.2625" stroke="#919191" stroke-width="2" stroke-linecap="round" stroke-linejoin="round"/>
<path d="M12.3242 16.2625C13.3949 14.1058 15.0382 12.2853 17.0742 11" stroke="#919191" stroke-width="2" stroke-linecap="round" stroke-linejoin="round"/>
</svg>
