<svg width="22" height="14" viewBox="0 0 22 14" fill="none" xmlns="http://www.w3.org/2000/svg">
<path fill-rule="evenodd" clip-rule="evenodd" d="M21.5 7C21.5 6.80109 21.421 6.61032 21.2803 6.46967C21.1397 6.32902 20.9489 6.25 20.75 6.25H3.0605L7.781 1.531C7.92183 1.39017 8.00095 1.19916 8.00095 1C8.00095 0.800838 7.92183 0.609831 7.781 0.469001C7.64017 0.328171 7.44916 0.249054 7.25 0.249054C7.05084 0.249054 6.85983 0.328171 6.719 0.469001L0.719 6.469C0.649155 6.53867 0.59374 6.62143 0.555931 6.71255C0.518122 6.80367 0.498659 6.90135 0.498659 7C0.498659 7.09865 0.518122 7.19633 0.555931 7.28745C0.59374 7.37857 0.649155 7.46133 0.719 7.531L6.719 13.531C6.85983 13.6718 7.05084 13.7509 7.25 13.7509C7.44916 13.7509 7.64017 13.6718 7.781 13.531C7.92183 13.3902 8.00095 13.1992 8.00095 13C8.00095 12.8008 7.92183 12.6098 7.781 12.469L3.0605 7.75H20.75C20.9489 7.75 21.1397 7.67098 21.2803 7.53033C21.421 7.38968 21.5 7.19891 21.5 7Z" fill="#1F6591" stroke="#1F6591" stroke-width="0.5"/>
</svg>
