<svg width="19" height="18" viewBox="0 0 19 18" fill="none" xmlns="http://www.w3.org/2000/svg">
<path d="M1.75 1.875H2.65424C3.13263 1.875 3.37183 1.875 3.56628 1.96174C3.73771 2.03821 3.88415 2.16138 3.98886 2.31717C4.10763 2.49388 4.14862 2.72954 4.23058 3.20085L4.45652 4.5M4.45652 4.5L4.99173 7.57743C5.17091 8.60771 5.26049 9.12285 5.52583 9.49395C5.75945 9.8207 6.08606 10.0695 6.46311 10.208C6.89133 10.3654 7.41176 10.315 8.45264 10.2143L14.9605 9.58447C15.2954 9.55205 15.4629 9.53585 15.6046 9.50086C16.3933 9.30603 16.9859 8.65339 17.1038 7.84952C17.125 7.70514 17.125 7.53688 17.125 7.20038V7.20038C17.125 6.84286 17.125 6.6641 17.1019 6.51329C16.9726 5.6714 16.3244 5.00372 15.4867 4.84966C15.3367 4.82206 15.158 4.81677 14.8006 4.8062L4.45652 4.5Z" stroke="white" stroke-width="1.6" stroke-linecap="round" stroke-linejoin="round"/>
<ellipse cx="7.375" cy="14.25" rx="1.5" ry="1.5" stroke="white" stroke-width="1.6"/>
<ellipse cx="14.5" cy="14.25" rx="1.5" ry="1.5" stroke="white" stroke-width="1.6"/>
</svg>
