<svg width="40" height="40" viewBox="0 0 40 40" fill="none" xmlns="http://www.w3.org/2000/svg">
<path d="M27.61 36.665H27.6567C28.5367 36.665 29.3683 36.3183 29.9983 35.6883L34.5183 31.1683C34.6733 31.0137 34.7962 30.83 34.88 30.6278C34.9639 30.4256 35.007 30.2089 35.007 29.99C35.007 29.7711 34.9639 29.5544 34.88 29.3522C34.7962 29.15 34.6733 28.9663 34.5183 28.8117L27.8517 22.145C27.697 21.9901 27.5134 21.8672 27.3112 21.7833C27.109 21.6995 26.8922 21.6563 26.6733 21.6563C26.4545 21.6563 26.2377 21.6995 26.0355 21.7833C25.8333 21.8672 25.6497 21.9901 25.495 22.145L22.8383 24.8016C21.6067 24.435 19.3083 23.6016 17.8517 22.145C16.395 20.6883 15.5617 18.39 15.195 17.1583L17.8517 14.5016C18.0066 14.347 18.1295 14.1633 18.2133 13.9611C18.2972 13.7589 18.3403 13.5422 18.3403 13.3233C18.3403 13.1044 18.2972 12.8877 18.2133 12.6855C18.1295 12.4833 18.0066 12.2996 17.8517 12.145L11.185 5.47831C10.8664 5.17757 10.4448 5.01004 10.0067 5.01004C9.56853 5.01004 9.14697 5.17757 8.82835 5.47831L4.31001 9.99831C3.67668 10.6316 3.32001 11.5016 3.33335 12.39C3.37168 14.7633 4.00001 23.0066 10.4967 29.5033C16.9933 36 25.2367 36.6267 27.61 36.665ZM10.0083 9.01331L14.3183 13.3233L12.1633 15.4783C11.9672 15.6739 11.8232 15.9154 11.7443 16.1809C11.6654 16.4464 11.6542 16.7274 11.7117 16.9983C11.7517 17.19 12.73 21.735 15.4967 24.5016C18.2633 27.2683 22.8083 28.2467 23 28.2867C23.2709 28.3444 23.552 28.3334 23.8176 28.2545C24.0831 28.1756 24.3246 28.0313 24.52 27.835L26.675 25.68L30.985 29.99L27.6417 33.3317C25.5617 33.2967 18.445 32.7383 12.8533 27.145C7.24335 21.535 6.70001 14.3933 6.66668 12.355L10.0083 9.01331ZM33.3317 18.3316H36.665C36.665 9.78165 30.21 3.33331 21.6483 3.33331V6.66665C28.4183 6.66665 33.3317 11.5716 33.3317 18.3316Z" fill="#8EECEC"/>
<path d="M21.665 13.3333C25.17 13.3333 26.665 14.8283 26.665 18.3333H29.9983C29.9983 12.9583 27.04 10 21.665 10V13.3333Z" fill="#8EECEC"/>
</svg>
