<svg width="40" height="40" viewBox="0 0 40 40" fill="none" xmlns="http://www.w3.org/2000/svg">
<circle cx="20" cy="20" r="20" fill="#00A0C6"/>
<path d="M23.805 28.3323H23.8283C24.2683 28.3323 24.6842 28.159 24.9992 27.844L27.2592 25.584C27.3366 25.5067 27.3981 25.4148 27.44 25.3137C27.4819 25.2127 27.5035 25.1043 27.5035 24.9948C27.5035 24.8854 27.4819 24.777 27.44 24.6759C27.3981 24.5748 27.3366 24.483 27.2592 24.4057L23.9258 21.0723C23.8485 20.9949 23.7567 20.9334 23.6556 20.8915C23.5545 20.8496 23.4461 20.828 23.3367 20.828C23.2272 20.828 23.1189 20.8496 23.0178 20.8915C22.9167 20.9334 22.8248 20.9949 22.7475 21.0723L21.4192 22.4007C20.8033 22.2173 19.6542 21.8007 18.9258 21.0723C18.1975 20.344 17.7808 19.1948 17.5975 18.579L18.9258 17.2507C19.0033 17.1733 19.0647 17.0815 19.1067 16.9804C19.1486 16.8793 19.1702 16.7709 19.1702 16.6615C19.1702 16.5521 19.1486 16.4437 19.1067 16.3426C19.0647 16.2415 19.0033 16.1497 18.9258 16.0723L15.5925 12.739C15.4332 12.5886 15.2224 12.5049 15.0033 12.5049C14.7843 12.5049 14.5735 12.5886 14.4142 12.739L12.155 14.999C11.8383 15.3157 11.66 15.7507 11.6667 16.1948C11.6858 17.3815 12 21.5032 15.2483 24.7515C18.4967 27.9998 22.6183 28.3132 23.805 28.3323ZM15.0042 14.5065L17.1592 16.6615L16.0817 17.739C15.9836 17.8368 15.9116 17.9576 15.8721 18.0903C15.8327 18.223 15.8271 18.3635 15.8558 18.499C15.8758 18.5948 16.365 20.8673 17.7483 22.2507C19.1317 23.634 21.4042 24.1232 21.5 24.1432C21.6355 24.1721 21.776 24.1665 21.9088 24.1271C22.0415 24.0876 22.1623 24.0155 22.26 23.9173L23.3375 22.8398L25.4925 24.9948L23.8208 26.6657C22.7808 26.6482 19.2225 26.369 16.4267 23.5723C13.6217 20.7673 13.35 17.1965 13.3333 16.1773L15.0042 14.5065ZM26.6658 19.1657H28.3325C28.3325 14.8907 25.105 11.6665 20.8242 11.6665V13.3332C24.2092 13.3332 26.6658 15.7857 26.6658 19.1657Z" fill="white"/>
<path d="M20.8325 16.6667C22.585 16.6667 23.3325 17.4142 23.3325 19.1667H24.9992C24.9992 16.4792 23.52 15 20.8325 15V16.6667Z" fill="white"/>
</svg>
