<svg width="143" height="40" viewBox="0 0 143 40" fill="none" xmlns="http://www.w3.org/2000/svg">
<path d="M39.2748 16.3396C39.2338 16.4108 39.1928 16.4718 39.1416 16.5226C38.9879 16.6955 38.8035 16.8581 38.6088 16.9903C38.1579 17.2852 37.6968 17.5597 37.2153 17.8037C36.6312 18.1088 36.0164 18.3325 35.3709 18.4952C35.1045 18.5562 34.8278 18.607 34.5512 18.6273C34.4077 18.6375 34.2643 18.6578 34.1311 18.6477C33.6392 18.6477 33.1474 18.5562 32.6966 18.3731C32.5224 18.302 32.3687 18.1901 32.2252 18.0579C29.8788 15.7194 27.5426 13.3909 25.1961 11.0523C24.3457 10.2084 23.5055 9.3645 22.655 8.5104L22.5935 8.4494C22.4706 8.31722 22.4808 8.32738 22.3476 8.4494C21.8763 8.89678 21.4049 9.35433 20.9233 9.80171L19.12 11.5201L17.4395 13.1164L15.5952 14.8754C15.0828 15.3635 14.5808 15.8414 14.0684 16.3294L12.1216 18.18L10.3899 19.817L8.60706 21.5252L6.8754 23.1723L5.56385 24.4128L5.51262 24.4636C5.47163 24.5043 5.45114 24.5043 5.41015 24.4636C5.34868 24.4026 5.29744 24.3315 5.23596 24.2603C5.01054 23.9959 4.79537 23.7417 4.56994 23.4774C4.41624 23.2842 4.28304 23.0707 4.19082 22.847C3.99614 22.4504 3.86293 22.0437 3.78096 21.6167C3.69899 21.1896 3.66825 20.7524 3.70924 20.3254C3.76047 19.7051 3.92441 19.0951 4.17033 18.5257C4.406 18.0071 4.6929 17.5089 5.03103 17.0513C5.33843 16.6243 5.68681 16.2277 6.05568 15.8617C6.48604 15.4347 6.93688 15.0178 7.36723 14.6009L7.53118 14.4382L9.32431 12.7097C9.76491 12.2826 10.1953 11.8658 10.6359 11.4489C11.2404 10.8693 11.8347 10.2796 12.4392 9.70003C13.259 8.89678 14.0889 8.09353 14.9087 7.29027C16.4866 5.75494 18.0441 4.20944 19.6015 2.65377C19.7757 2.48092 19.9807 2.3284 20.1958 2.20639C20.6979 1.93186 21.241 1.73867 21.8045 1.63699C22.2246 1.56582 22.655 1.55565 23.0751 1.61666C23.7104 1.70817 24.3149 1.94203 24.8375 2.31823C25.0014 2.44025 25.1551 2.57243 25.2986 2.70461C25.8519 3.22316 26.4052 3.74172 26.9585 4.27044C27.6348 4.91101 28.3008 5.55158 28.9668 6.19215C29.3664 6.57853 29.7763 6.9649 30.1759 7.36145L31.6207 8.7646L33.1679 10.2694L35.0737 12.12L36.8976 13.8993C37.6354 14.6212 38.3731 15.3431 39.1109 16.0651C39.1416 16.0956 39.1826 16.1261 39.2133 16.1667C39.3055 16.1972 39.3158 16.2786 39.2748 16.3396Z" fill="#00A0C6"/>
<path d="M33.0449 37.4682H32.8605C27.0508 37.4682 21.241 37.4682 15.4415 37.4682C15.1853 37.458 14.9292 37.4377 14.6832 37.3868C14.1607 37.2953 13.6586 37.1631 13.1565 36.9801C12.2241 36.6446 11.3839 36.1057 10.6871 35.394C9.92887 34.6009 9.39605 33.6248 9.15014 32.5572C9.08866 32.3233 9.05792 32.0894 9.05792 31.8454C9.04767 31.3268 9.03743 30.7981 9.01693 30.2796C8.99644 29.8525 9.00669 29.4356 8.98619 29.0086C8.95545 28.49 8.97595 27.9715 8.94521 27.4631C8.90422 26.5073 8.91447 25.5617 8.91447 24.606C8.91447 24.5246 8.94521 24.4433 9.01693 24.3924C9.56 23.9349 10.0928 23.4672 10.6256 23.0096C11.015 22.6741 11.4044 22.3385 11.7937 22.003C12.2651 21.5963 12.7364 21.1896 13.2077 20.793C13.5049 20.549 13.7918 20.2948 14.0787 20.0406L14.6423 19.5526C14.6627 19.5322 14.6832 19.5221 14.7037 19.5119C14.714 19.5017 14.7345 19.5119 14.7345 19.5221V19.5322C14.7345 19.5831 14.7345 19.6339 14.7345 19.6949V27.0767C14.7345 27.2394 14.7345 27.4021 14.714 27.5648C14.714 27.6766 14.714 27.7885 14.7242 27.9003C14.7345 28.3375 14.796 28.7646 14.9087 29.1916C15.0521 29.761 15.3083 30.2897 15.6669 30.7473C16.0358 31.2048 16.5174 31.5505 17.0707 31.7641C17.3986 31.8962 17.7469 31.9776 18.0953 32.0183C18.372 32.0488 18.6384 32.0589 18.915 32.0589C21.4972 32.0488 24.0793 32.0488 26.6614 32.0589C28.0139 32.0691 29.3255 32.4758 30.4526 33.2181C31.4567 33.8891 32.2252 34.8551 32.6453 35.9837C32.8093 36.4107 32.922 36.8581 33.004 37.3055C33.004 37.3665 33.0245 37.4072 33.0449 37.4682Z" fill="#00A0C6"/>
<path d="M14.7959 3.8434C14.7857 3.91458 14.7755 3.99592 14.755 4.0671C14.7345 4.13827 14.6935 4.19928 14.6423 4.23995C14.3144 4.56532 13.9762 4.89068 13.6483 5.21605C12.8491 5.99897 12.0499 6.77172 11.2507 7.55464L9.3858 9.3645C9.2526 9.48652 9.11939 9.6187 8.98619 9.74071C8.9657 9.76105 8.93496 9.77121 8.90422 9.76105V2.59277C8.90422 2.32841 8.87348 2.34874 9.13989 2.34874H14.5398C14.8062 2.34874 14.7652 2.32841 14.7652 2.57243C14.7652 2.76562 14.7755 2.95881 14.7959 3.152C14.8164 3.38585 14.8164 3.60955 14.7959 3.8434Z" fill="#00A0C6"/>
<path d="M52.3903 3.22314H53.876L59.5628 17.0411H57.6877L56.038 12.9944H50.1975L48.5683 17.0411H46.683L52.3903 3.22314ZM55.6487 11.6319L53.1383 5.24653L50.5459 11.6319H55.6487Z" fill="#919191"/>
<path d="M66.2128 10.0356C66.2128 9.2018 66.3562 8.37821 66.6534 7.55462C66.9505 6.73103 67.3809 5.98879 67.9444 5.33805C68.5182 4.68731 69.2047 4.15859 70.0347 3.75188C70.8544 3.34517 71.7971 3.15198 72.8422 3.15198C74.0821 3.15198 75.1477 3.42651 76.0391 3.98573C76.9306 4.54496 77.5864 5.26687 78.0167 6.16164L76.6232 7.0564C76.4183 6.61919 76.1621 6.24298 75.865 5.94811C75.5678 5.65325 75.2502 5.40922 74.9018 5.2262C74.5534 5.04318 74.1948 4.911 73.8362 4.83983C73.4673 4.75848 73.1087 4.72798 72.7603 4.72798C71.9918 4.72798 71.3053 4.89067 70.711 5.20587C70.1167 5.52107 69.6146 5.93795 69.215 6.44634C68.8051 6.95472 68.508 7.53429 68.303 8.17486C68.0981 8.81543 67.9957 9.46616 67.9957 10.1067C67.9957 10.8286 68.1186 11.5201 68.3543 12.181C68.6002 12.8317 68.9281 13.4214 69.3687 13.9196C69.799 14.428 70.3114 14.8246 70.8954 15.1296C71.4795 15.4245 72.125 15.577 72.8218 15.577C73.1906 15.577 73.5595 15.5363 73.9489 15.4448C74.3382 15.3533 74.7071 15.211 75.0555 15.0076C75.4039 14.8042 75.742 14.55 76.0494 14.245C76.3568 13.94 76.613 13.5739 76.8076 13.1469L78.2831 13.94C78.0577 14.4585 77.7503 14.9161 77.3507 15.3126C76.9511 15.7092 76.5002 16.0447 75.9982 16.3192C75.4961 16.5938 74.9633 16.7971 74.3997 16.9395C73.8362 17.0818 73.2931 17.153 72.75 17.153C71.7971 17.153 70.9159 16.9496 70.1269 16.5328C69.3277 16.1159 68.6412 15.577 68.0571 14.9059C67.4731 14.2348 67.0222 13.4824 66.7046 12.6283C66.3767 11.7844 66.2128 10.9202 66.2128 10.0356Z" fill="#919191"/>
<path d="M82.8428 17.2343C82.3612 17.2343 81.9104 17.153 81.4903 16.9903C81.0701 16.8276 80.7115 16.6039 80.4041 16.3192C80.0967 16.0345 79.8508 15.699 79.6766 15.3126C79.5024 14.9263 79.4102 14.5094 79.4102 14.062C79.4102 13.5943 79.5127 13.1672 79.7279 12.791C79.9328 12.4046 80.2299 12.0793 80.6193 11.8047C81.0087 11.5302 81.4595 11.3167 81.9923 11.1642C82.5252 11.0117 83.099 10.9303 83.724 10.9303C84.2158 10.9303 84.7281 10.971 85.2302 11.0625C85.7425 11.154 86.1934 11.276 86.5828 11.4285V10.6151C86.5828 9.78136 86.3471 9.13062 85.8757 8.6629C85.4044 8.18502 84.7384 7.95116 83.8777 7.95116C82.8428 7.95116 81.7567 8.3477 80.6193 9.14079L80.066 8.0325C81.3878 7.14791 82.7096 6.71069 84.0519 6.71069C85.3942 6.71069 86.4496 7.06657 87.1975 7.77831C87.9455 8.49005 88.3247 9.49666 88.3247 10.7981V14.9466C88.3247 15.3533 88.5091 15.5567 88.878 15.5668V17.0411C88.6935 17.0717 88.5398 17.0818 88.4271 17.1022C88.3144 17.1123 88.1812 17.1225 88.0583 17.1225C87.7201 17.1225 87.4435 17.0208 87.2488 16.8175C87.0439 16.6141 86.9209 16.3701 86.8902 16.0854L86.8492 15.3635C86.3881 15.9735 85.8143 16.4412 85.1175 16.7564C84.39 17.0818 83.642 17.2343 82.8428 17.2343ZM83.3039 15.9532C83.9187 15.9532 84.4925 15.8414 85.015 15.6177C85.5479 15.394 85.9475 15.0889 86.2241 14.7127C86.47 14.4687 86.593 14.2145 86.593 13.9501V12.4555C85.7528 12.1301 84.8818 11.9674 83.9801 11.9674C83.1194 11.9674 82.4124 12.1504 81.8694 12.5165C81.3263 12.8825 81.0599 13.3502 81.0599 13.94C81.0599 14.2247 81.1111 14.489 81.2238 14.7331C81.3366 14.9771 81.4903 15.1906 81.6952 15.3736C81.9001 15.5567 82.1358 15.699 82.4124 15.8007C82.6891 15.9024 82.9862 15.9532 83.3039 15.9532Z" fill="#919191"/>
<path d="M94.6775 17.2343C93.8578 17.2343 93.0381 17.1123 92.2491 16.8581C91.4499 16.6039 90.7634 16.2379 90.1896 15.76L90.9376 14.611C91.5421 15.0686 92.1364 15.4041 92.7409 15.6278C93.3455 15.8515 93.9808 15.9735 94.6468 15.9735C95.3948 15.9735 95.9788 15.8312 96.4194 15.5363C96.86 15.2414 97.0752 14.8347 97.0752 14.2958C97.0752 14.0518 97.0137 13.8383 96.901 13.6654C96.7883 13.4926 96.6039 13.3401 96.3682 13.2079C96.1325 13.0757 95.8354 12.9638 95.4665 12.8622C95.0976 12.7605 94.6775 12.6486 94.196 12.5266C93.5812 12.3741 93.0483 12.2216 92.6077 12.0793C92.1671 11.9369 91.7983 11.7641 91.5114 11.5709C91.2245 11.3777 91.0093 11.1438 90.8863 10.8693C90.7531 10.5948 90.6916 10.2592 90.6916 9.85251C90.6916 9.34412 90.7941 8.89674 90.999 8.5002C91.204 8.10365 91.4806 7.77828 91.829 7.50375C92.1774 7.23939 92.5975 7.03604 93.0791 6.90386C93.5607 6.77167 94.073 6.7005 94.6161 6.7005C95.3845 6.7005 96.1018 6.82251 96.7781 7.06654C97.4441 7.31057 98.0076 7.63593 98.4687 8.04265L97.6798 9.06959C97.2494 8.69338 96.7678 8.40869 96.2248 8.22567C95.6919 8.04265 95.1386 7.94097 94.5751 7.94097C93.95 7.94097 93.4172 8.07315 92.9766 8.33751C92.536 8.60187 92.3208 9.02892 92.3208 9.60848C92.3208 9.84234 92.3618 10.0355 92.4438 10.188C92.5258 10.3406 92.6692 10.4829 92.8639 10.5948C93.0586 10.7066 93.3148 10.8184 93.6221 10.91C93.9295 11.0015 94.2984 11.1031 94.7288 11.2048C95.405 11.3573 95.9993 11.52 96.5014 11.6827C97.0035 11.8454 97.4236 12.0386 97.7515 12.2521C98.0896 12.4758 98.3355 12.73 98.4995 13.035C98.6634 13.3299 98.7454 13.6959 98.7454 14.123C98.7454 15.0686 98.3765 15.821 97.649 16.3802C96.901 16.9598 95.9174 17.2343 94.6775 17.2343Z" fill="#919191"/>
<path d="M103.397 17.2343C102.916 17.2343 102.465 17.153 102.045 16.9903C101.625 16.8276 101.266 16.6039 100.959 16.3192C100.651 16.0345 100.405 15.699 100.231 15.3126C100.057 14.9263 99.9647 14.5094 99.9647 14.062C99.9647 13.5943 100.067 13.1672 100.282 12.791C100.487 12.4046 100.784 12.0793 101.174 11.8047C101.563 11.5302 102.014 11.3167 102.547 11.1642C103.08 11.0117 103.653 10.9303 104.278 10.9303C104.77 10.9303 105.283 10.971 105.785 11.0625C106.297 11.154 106.748 11.276 107.137 11.4285V10.6151C107.137 9.78136 106.902 9.13062 106.43 8.6629C105.959 8.18502 105.293 7.95116 104.432 7.95116C103.397 7.95116 102.311 8.3477 101.174 9.14079L100.62 8.0325C101.942 7.14791 103.264 6.71069 104.606 6.71069C105.949 6.71069 107.004 7.06657 107.752 7.77831C108.5 8.49005 108.879 9.49666 108.879 10.7981V14.9466C108.879 15.3533 109.064 15.5567 109.432 15.5668V17.0411C109.248 17.0717 109.094 17.0818 108.982 17.1022C108.869 17.1123 108.736 17.1225 108.613 17.1225C108.275 17.1225 107.998 17.0208 107.803 16.8175C107.598 16.6141 107.475 16.3701 107.445 16.0854L107.404 15.3635C106.943 15.9735 106.369 16.4412 105.672 16.7564C104.945 17.0818 104.197 17.2343 103.397 17.2343ZM103.848 15.9532C104.463 15.9532 105.037 15.8414 105.559 15.6177C106.092 15.394 106.492 15.0889 106.768 14.7127C107.014 14.4687 107.137 14.2145 107.137 13.9501V12.4555C106.297 12.1301 105.426 11.9674 104.524 11.9674C103.664 11.9674 102.957 12.1504 102.414 12.5165C101.871 12.8825 101.604 13.3502 101.604 13.94C101.604 14.2247 101.655 14.489 101.768 14.7331C101.881 14.9771 102.035 15.1906 102.239 15.3736C102.444 15.5567 102.68 15.699 102.957 15.8007C103.244 15.9024 103.541 15.9532 103.848 15.9532Z" fill="#919191"/>
<path d="M56.1508 25.7244C56.0585 25.6329 55.8946 25.5109 55.6589 25.3584C55.4233 25.2059 55.1364 25.0533 54.7982 24.911C54.4601 24.7686 54.0912 24.6365 53.6916 24.5348C53.292 24.4331 52.8924 24.3823 52.4825 24.3823C51.755 24.3823 51.212 24.5144 50.8533 24.7788C50.4947 25.0432 50.3205 25.4194 50.3205 25.8973C50.3205 26.1718 50.3922 26.4057 50.5254 26.5887C50.6586 26.7717 50.8533 26.9344 51.1095 27.0767C51.3656 27.2191 51.6833 27.3411 52.0829 27.4529C52.4723 27.5648 52.9231 27.6868 53.4354 27.819C54.1015 28.002 54.706 28.185 55.2491 28.3884C55.7921 28.5917 56.2532 28.8459 56.6323 29.151C57.0115 29.456 57.2984 29.822 57.5033 30.2491C57.7082 30.6761 57.8107 31.1947 57.8107 31.8149C57.8107 32.5368 57.6775 33.1571 57.4008 33.6756C57.1242 34.1942 56.7553 34.6009 56.284 34.9262C55.8126 35.2414 55.2798 35.4753 54.6753 35.6177C54.0707 35.76 53.4354 35.8413 52.7694 35.8413C51.7448 35.8413 50.7406 35.6888 49.7365 35.3838C48.7425 35.0788 47.8409 34.6517 47.0519 34.0925L48.22 31.8251C48.3327 31.9369 48.5479 32.0894 48.845 32.2725C49.1422 32.4555 49.5008 32.6385 49.9106 32.8215C50.3205 33.0045 50.7714 33.1571 51.2734 33.2892C51.7755 33.4112 52.2878 33.4824 52.8104 33.4824C54.2654 33.4824 54.9929 33.0147 54.9929 32.0894C54.9929 31.7946 54.9109 31.5505 54.747 31.3472C54.583 31.1438 54.3474 30.971 54.04 30.8185C53.7326 30.6659 53.3637 30.5236 52.9231 30.4016C52.4928 30.2796 52.0009 30.1372 51.4681 29.9847C50.8123 29.8119 50.2488 29.6085 49.7672 29.4051C49.2856 29.1916 48.886 28.9476 48.5684 28.6629C48.2507 28.3782 48.0048 28.0427 47.8511 27.6766C47.6872 27.3004 47.6154 26.853 47.6154 26.3345C47.6154 25.6532 47.7384 25.0432 47.9946 24.5043C48.2507 23.9756 48.6093 23.5282 49.0602 23.1723C49.511 22.8164 50.0439 22.5521 50.6382 22.3589C51.2427 22.1759 51.8882 22.0844 52.5747 22.0844C53.5379 22.0844 54.4191 22.2369 55.2183 22.5317C56.0278 22.8266 56.7246 23.1825 57.3291 23.5892L56.1508 25.7244Z" fill="#1F6591"/>
<path d="M62.2884 35.8922C61.8068 35.8922 61.3457 35.8109 60.9256 35.6584C60.5055 35.4957 60.1366 35.2821 59.8293 34.9873C59.5219 34.7026 59.2862 34.367 59.112 33.9908C58.9378 33.6146 58.8558 33.1876 58.8558 32.73C58.8558 32.2623 58.9583 31.8251 59.1735 31.4286C59.3886 31.032 59.6755 30.6863 60.0547 30.4118C60.4338 30.1373 60.8846 29.9136 61.4072 29.7509C61.9298 29.5882 62.5036 29.517 63.1389 29.517C63.5897 29.517 64.0201 29.5577 64.4504 29.6289C64.8808 29.7 65.2599 29.8119 65.5878 29.9542V29.3848C65.5878 28.7239 65.4033 28.2155 65.0242 27.8597C64.6451 27.5038 64.0918 27.3309 63.3438 27.3309C62.811 27.3309 62.2782 27.4225 61.7658 27.6156C61.2535 27.8088 60.7309 28.0834 60.1879 28.4494L59.3989 26.8327C60.69 25.9786 62.0835 25.5618 63.5795 25.5618C65.0242 25.5618 66.1513 25.9176 66.9506 26.6192C67.7498 27.3208 68.1494 28.3376 68.1494 29.6797V32.7809C68.1494 33.0452 68.2006 33.2384 68.2928 33.3503C68.3851 33.4621 68.549 33.5231 68.7642 33.5435V35.7092C68.3338 35.8007 67.9547 35.8414 67.6371 35.8414C67.1555 35.8414 66.7764 35.7295 66.51 35.516C66.2435 35.3025 66.0796 35.0178 66.0181 34.6619L65.9567 34.1129C65.5058 34.6924 64.9627 35.1398 64.3275 35.4448C63.7024 35.7397 63.0159 35.8922 62.2884 35.8922ZM64.7988 24.2399C64.5017 24.2399 64.2455 24.1993 64.0303 24.1078C63.8151 24.0163 63.6102 23.9247 63.4258 23.8129C63.2413 23.7011 63.0569 23.6095 62.8725 23.518C62.688 23.4265 62.4933 23.3859 62.2884 23.3859C62.0732 23.3859 61.899 23.4265 61.7761 23.518C61.6531 23.6095 61.5609 23.7112 61.4994 23.8231C61.4379 23.9349 61.397 24.0468 61.3867 24.1383C61.3765 24.2298 61.3662 24.2908 61.3662 24.301H59.942C59.942 24.1891 59.9829 23.9959 60.0547 23.7214C60.1264 23.4469 60.2596 23.1723 60.4338 22.8978C60.608 22.6233 60.8334 22.3792 61.1203 22.1759C61.4072 21.9624 61.7658 21.8607 62.1859 21.8607C62.4831 21.8607 62.729 21.9115 62.9442 22.003C63.1594 22.0945 63.354 22.1962 63.5385 22.3081C63.7229 22.4199 63.9074 22.5216 64.0918 22.6131C64.2762 22.7046 64.4812 22.7555 64.7168 22.7555C64.9422 22.7555 65.1267 22.7148 65.2599 22.6233C65.3931 22.5318 65.4956 22.4301 65.5673 22.3182C65.639 22.2064 65.68 22.0945 65.7005 21.9929C65.721 21.8912 65.7312 21.8302 65.7312 21.7997H67.1555C67.1555 21.8912 67.1145 22.064 67.0428 22.3284C66.9711 22.5928 66.8378 22.8673 66.6534 23.152C66.469 23.4265 66.2231 23.6807 65.9259 23.9044C65.6185 24.1281 65.2496 24.2399 64.7988 24.2399ZM63.0159 34.0315C63.4463 34.0315 63.8664 33.9603 64.2557 33.8078C64.6451 33.6553 64.9525 33.4519 65.1677 33.1978C65.4443 32.9842 65.5878 32.7402 65.5878 32.4758V31.3371C65.2804 31.2252 64.9525 31.1337 64.5939 31.0625C64.2352 30.9913 63.8869 30.9608 63.559 30.9608C62.8929 30.9608 62.3499 31.1134 61.9298 31.4082C61.5097 31.7031 61.2945 32.0793 61.2945 32.5368C61.2945 32.9639 61.4584 33.3299 61.7966 33.6146C62.1245 33.8892 62.5241 34.0315 63.0159 34.0315Z" fill="#1F6591"/>
<path d="M75.199 35.8922C74.3793 35.8922 73.6415 35.7499 72.996 35.4753C72.3402 35.2008 71.7869 34.8144 71.3361 34.3467C70.8852 33.8688 70.5368 33.3198 70.2909 32.6995C70.045 32.0793 69.9221 31.4286 69.9221 30.7372C69.9221 30.0356 70.045 29.3747 70.2909 28.7544C70.5368 28.1342 70.8852 27.5852 71.3361 27.1073C71.7869 26.6294 72.3402 26.2532 72.996 25.9786C73.6518 25.7041 74.3793 25.5618 75.199 25.5618C76.0187 25.5618 76.7462 25.7041 77.3917 25.9786C78.0373 26.2532 78.5906 26.6396 79.0414 27.1073C79.4923 27.5852 79.8407 28.1342 80.0866 28.7544C80.3325 29.3747 80.4554 30.0356 80.4554 30.7372C80.4554 31.4184 80.3325 32.0793 80.0866 32.6995C79.8407 33.3198 79.5025 33.8688 79.0517 34.3467C78.6008 34.8246 78.0578 35.2008 77.402 35.4753C76.7565 35.7499 76.0187 35.8922 75.199 35.8922ZM72.5657 30.7372C72.5657 31.1845 72.6374 31.5811 72.7706 31.9471C72.9038 32.3132 73.0882 32.6182 73.3239 32.8927C73.5596 33.1571 73.8362 33.3706 74.1539 33.513C74.4715 33.6553 74.8199 33.7367 75.1887 33.7367C75.5576 33.7367 75.906 33.6655 76.2236 33.513C76.5413 33.3706 76.8179 33.1571 77.0536 32.8927C77.2893 32.6284 77.4737 32.3132 77.6069 31.937C77.7401 31.5709 77.8119 31.1642 77.8119 30.7168C77.8119 30.2898 77.7401 29.8831 77.6069 29.517C77.4737 29.151 77.2893 28.8358 77.0536 28.5613C76.8179 28.2969 76.5413 28.0935 76.2236 27.941C75.906 27.7987 75.5576 27.7173 75.1887 27.7173C74.8199 27.7173 74.4715 27.7885 74.1539 27.941C73.8362 28.0935 73.5596 28.3071 73.3239 28.5714C73.0882 28.8358 72.9038 29.151 72.7706 29.5272C72.6374 29.9034 72.5657 30.2999 72.5657 30.7372Z" fill="#1F6591"/>
<path d="M87.0337 35.7092V22.186H92.8127C93.4377 22.186 94.0218 22.3182 94.5444 22.5724C95.0772 22.8368 95.528 23.1723 95.9174 23.5994C96.2965 24.0264 96.6039 24.5043 96.8191 25.0432C97.0343 25.5821 97.147 26.121 97.147 26.67C97.147 27.2394 97.0445 27.7986 96.8396 28.3375C96.6346 28.8764 96.3477 29.3543 95.9789 29.7712C95.61 30.1881 95.1592 30.5236 94.6366 30.7778C94.114 31.032 93.5402 31.154 92.9049 31.154H89.6773V35.6888H87.0337V35.7092ZM89.6875 28.8663H92.7615C93.2431 28.8663 93.6529 28.6731 93.9808 28.2765C94.3087 27.88 94.4726 27.3513 94.4726 26.6802C94.4726 26.3345 94.4214 26.0295 94.3189 25.7549C94.2165 25.4804 94.0833 25.2465 93.9193 25.0635C93.7554 24.8703 93.5607 24.728 93.3353 24.6365C93.1099 24.545 92.8844 24.4941 92.659 24.4941H89.708V28.8663H89.6875Z" fill="#1F6591"/>
<path d="M101.389 35.8922C100.907 35.8922 100.446 35.8109 100.026 35.6584C99.6061 35.4957 99.2372 35.2822 98.9298 34.9873C98.6224 34.7026 98.3868 34.3671 98.2126 33.9908C98.0384 33.6146 97.9564 33.1876 97.9564 32.73C97.9564 32.2623 98.0589 31.8251 98.2741 31.4286C98.4892 31.032 98.7761 30.6863 99.1553 30.4118C99.5344 30.1373 99.9852 29.9136 100.508 29.7509C101.03 29.5882 101.604 29.517 102.239 29.517C102.69 29.517 103.121 29.5577 103.551 29.6289C103.981 29.7 104.36 29.8119 104.688 29.9542V29.3848C104.688 28.7239 104.504 28.2156 104.125 27.8597C103.746 27.5038 103.192 27.331 102.444 27.331C101.912 27.331 101.379 27.4225 100.866 27.6157C100.354 27.8088 99.8315 28.0834 99.2885 28.4494L98.4995 26.8327C99.7905 25.9786 101.184 25.5618 102.68 25.5618C104.125 25.5618 105.252 25.9176 106.051 26.6192C106.85 27.3208 107.25 28.3376 107.25 29.6797V32.7809C107.25 33.0452 107.301 33.2384 107.393 33.3503C107.486 33.4621 107.65 33.5231 107.865 33.5435V35.7092C107.434 35.8007 107.055 35.8414 106.738 35.8414C106.256 35.8414 105.877 35.7295 105.611 35.516C105.344 35.3025 105.18 35.0178 105.119 34.6619L105.057 34.1129C104.606 34.6924 104.063 35.1398 103.428 35.4448C102.803 35.7397 102.116 35.8922 101.389 35.8922ZM102.116 34.0315C102.547 34.0315 102.967 33.9603 103.356 33.8078C103.746 33.6553 104.053 33.452 104.268 33.1978C104.545 32.9842 104.688 32.7402 104.688 32.4758V31.3371C104.381 31.2252 104.053 31.1337 103.694 31.0625C103.336 30.9914 102.987 30.9609 102.66 30.9609C101.994 30.9609 101.45 31.1134 101.03 31.4082C100.61 31.7031 100.395 32.0793 100.395 32.5369C100.395 32.9639 100.559 33.3299 100.897 33.6146C101.225 33.8892 101.635 34.0315 102.116 34.0315Z" fill="#1F6591"/>
<path d="M112.732 35.8922C111.697 35.8922 110.908 35.5668 110.375 34.9059C109.842 34.245 109.566 33.2689 109.566 31.9776V25.7244H112.138V31.4184C112.138 32.9537 112.691 33.7265 113.808 33.7265C114.31 33.7265 114.791 33.5739 115.253 33.2791C115.724 32.9842 116.103 32.5267 116.39 31.9166V25.7244H118.962V32.7707C118.962 33.035 119.013 33.2282 119.105 33.3401C119.197 33.4519 119.361 33.5129 119.577 33.5333V35.699C119.32 35.7498 119.105 35.7803 118.931 35.7905C118.757 35.8007 118.603 35.8109 118.46 35.8109C117.999 35.8109 117.63 35.7092 117.333 35.4957C117.046 35.2821 116.871 34.9974 116.82 34.6314L116.759 33.8281C116.308 34.5094 115.734 35.0279 115.027 35.3736C114.341 35.7193 113.572 35.8922 112.732 35.8922Z" fill="#1F6591"/>
<path d="M121.493 21.8099H124.064V32.5064C124.064 32.8724 124.157 33.1571 124.331 33.3605C124.505 33.5638 124.761 33.6655 125.099 33.6655C125.253 33.6655 125.427 33.6452 125.612 33.5943C125.796 33.5435 125.97 33.4825 126.134 33.4011L126.483 35.3432C126.134 35.5059 125.735 35.638 125.274 35.7194C124.812 35.8109 124.392 35.8516 124.023 35.8516C123.214 35.8516 122.599 35.638 122.148 35.211C121.708 34.7839 121.482 34.184 121.482 33.391V21.8099H121.493Z" fill="#1F6591"/>
<path d="M132.241 35.8922C131.421 35.8922 130.684 35.7499 130.038 35.4753C129.382 35.2008 128.829 34.8144 128.378 34.3467C127.927 33.8688 127.579 33.3198 127.333 32.6995C127.087 32.0793 126.964 31.4286 126.964 30.7372C126.964 30.0356 127.087 29.3747 127.333 28.7544C127.579 28.1342 127.927 27.5852 128.378 27.1073C128.829 26.6294 129.382 26.2532 130.038 25.9786C130.694 25.7041 131.421 25.5618 132.241 25.5618C133.061 25.5618 133.788 25.7041 134.434 25.9786C135.079 26.2532 135.633 26.6396 136.084 27.1073C136.534 27.5852 136.883 28.1342 137.129 28.7544C137.375 29.3747 137.498 30.0356 137.498 30.7372C137.498 31.4184 137.375 32.0793 137.129 32.6995C136.883 33.3198 136.545 33.8688 136.094 34.3467C135.643 34.8246 135.1 35.2008 134.444 35.4753C133.799 35.7499 133.061 35.8922 132.241 35.8922ZM129.608 30.7372C129.608 31.1845 129.68 31.5811 129.813 31.9471C129.946 32.3132 130.13 32.6182 130.366 32.8927C130.602 33.1571 130.878 33.3706 131.196 33.513C131.514 33.6553 131.862 33.7367 132.231 33.7367C132.6 33.7367 132.948 33.6655 133.266 33.513C133.583 33.3706 133.86 33.1571 134.096 32.8927C134.331 32.6284 134.516 32.3132 134.649 31.937C134.782 31.5709 134.854 31.1642 134.854 30.7168C134.854 30.2898 134.782 29.8831 134.649 29.517C134.516 29.151 134.331 28.8358 134.096 28.5613C133.86 28.2969 133.583 28.0935 133.266 27.941C132.948 27.7987 132.6 27.7173 132.231 27.7173C131.862 27.7173 131.514 27.7885 131.196 27.941C130.878 28.0935 130.602 28.3071 130.366 28.5714C130.13 28.8358 129.946 29.151 129.813 29.5272C129.68 29.9034 129.608 30.2999 129.608 30.7372Z" fill="#1F6591"/>
</svg>
